<?xml version="1.0" encoding="iso-8859-1"?>
<!-- Generator: Adobe Illustrator 21.0.0, SVG Export Plug-In . SVG Version: 6.00 Build 0)  -->
<svg xmlns="http://www.w3.org/2000/svg" xmlns:xlink="http://www.w3.org/1999/xlink" version="1.1" id="Capa_1" x="0px" y="0px" viewBox="0 0 512 512" style="enable-background:new 0 0 512 512;" xml:space="preserve" width="512" height="512">
<g>
	<polygon style="fill:#FF2C5C;" points="201.5,147.843 201.5,270.157 104.5,316.5 7.5,270.157 7.5,147.843 104.5,101.5  "/>
	<polygon style="fill:#E62753;" points="201.5,147.843 171.5,162.176 76.67,114.796 104.5,101.5  "/>
	<polygon style="fill:#4FB1F5;" points="104.5,194.186 104.5,316.5 7.5,270.157 7.5,147.843  "/>
	<polygon style="fill:#FFD659;" points="104.5,194.186 104.5,316.5 201.5,270.157 201.5,147.843  "/>
	<polygon style="fill:#FFBD54;" points="201.5,147.843 171.5,162.176 171.952,284.274 201.5,270.157  "/>
	<polygon style="fill:#FF2C5C;" points="504.5,147.843 504.5,270.157 407.5,316.5 310.5,270.157 310.5,147.843 407.5,101.5  "/>
	<polygon style="fill:#E62753;" points="504.5,147.843 474.5,162.176 379.67,114.796 407.5,101.5  "/>
	<polygon style="fill:#4FB1F5;" points="407.5,194.186 407.5,316.5 310.5,270.157 310.5,147.843  "/>
	<polygon style="fill:#FFD659;" points="407.5,194.186 407.5,316.5 504.5,270.157 504.5,147.843  "/>
	<polygon style="fill:#FFBD54;" points="504.5,147.843 474.5,162.176 474.952,284.274 504.5,270.157  "/>
	<path style="fill:#FF2C5C;" d="M296,410.5h-80c-5.523,0-10-4.477-10-10v-60c0-5.523,4.477-10,10-10h80c5.523,0,10,4.477,10,10v60   C306,406.023,301.523,410.5,296,410.5z"/>
	<path style="fill:#E62753;" d="M296,330.5h-30c5.523,0,10,4.477,10,10v60c0,5.523-4.477,10-10,10h30c5.523,0,10-4.477,10-10v-60   C306,334.977,301.523,330.5,296,330.5z"/>
	<circle style="fill:#685C79;" cx="256" cy="363" r="15"/>
	<g>
		<path d="M504.5,179.417c4.143,0,7.5-3.357,7.5-7.5v-24.074c0-2.853-1.651-5.516-4.267-6.768l-97-46.343    c-2.045-0.977-4.422-0.977-6.467,0l-97,46.343c-2.682,1.282-4.267,3.995-4.267,6.768v50.052l-20.572,5.404    c-3.297,0.866-5.595,3.846-5.595,7.254v22.224h-41.666v-22.224c0-3.408-2.298-6.388-5.595-7.254L209,197.895v-50.052    c0-2.827-1.635-5.508-4.267-6.768l-97-46.343c-2.045-0.977-4.422-0.977-6.467,0l-97,46.343C1.592,142.354,0,145.067,0,147.843    v75.907c0,4.143,3.357,7.5,7.5,7.5s7.5-3.357,7.5-7.5v-64.012l82,39.176v105.69l-82-39.176v-9.679c0-4.143-3.357-7.5-7.5-7.5    s-7.5,3.357-7.5,7.5v14.407c0,2.89,1.66,5.521,4.267,6.768l97,46.343c2.043,0.975,4.486,0.946,6.467,0l97-46.343    c1.799-0.86,3.131-2.388,3.793-4.198l17.235,4.527c0.629,0.165,1.269,0.246,1.905,0.246c1.64,0,3.254-0.538,4.58-1.562    c1.842-1.42,2.92-3.613,2.92-5.938v-22.224H248.5v25.978c-17.096,3.484-30,18.635-30,36.745V323H216    c-9.649,0-17.5,7.851-17.5,17.5v11.083c0,4.143,3.357,7.5,7.5,7.5s7.5-3.357,7.5-7.5V340.5c0-1.379,1.121-2.5,2.5-2.5h80    c1.379,0,2.5,1.121,2.5,2.5v60c0,1.379-1.121,2.5-2.5,2.5h-80c-1.379,0-2.5-1.121-2.5-2.5v-16.083c0-4.143-3.357-7.5-7.5-7.5    s-7.5,3.357-7.5,7.5V400.5c0,9.649,7.851,17.5,17.5,17.5h80c9.649,0,17.5-7.851,17.5-17.5v-60c0-9.649-7.851-17.5-17.5-17.5h-2.5    v-12.5c0-18.11-12.904-33.261-30-36.745v-25.978h13.333V270c0,2.325,1.078,4.519,2.92,5.938c1.326,1.023,2.94,1.562,4.58,1.562    c0.637,0,1.276-0.081,1.905-0.246l17.235-4.527c0.662,1.81,1.994,3.338,3.793,4.198l97,46.343c2.066,0.987,4.512,0.933,6.467,0    l97-46.343c2.606-1.246,4.267-3.878,4.267-6.768v-66.574c0-4.143-3.357-7.5-7.5-7.5s-7.5,3.357-7.5,7.5v61.846l-82,39.176v-105.69    l82-39.176v12.179C497,176.06,500.357,179.417,504.5,179.417z M24.899,147.843l79.601-38.03l79.601,38.03l-79.601,38.03    L24.899,147.843z M112,304.604v-105.69l82-39.176v34.216l-21.095-5.541c-4.007-1.053-8.106,1.342-9.159,5.349    c-1.053,4.006,1.342,8.106,5.349,9.159L194,209.463v43.938l-21.095-5.541c-4.007-1.053-8.106,1.342-9.159,5.349    c-1.053,4.006,1.342,8.106,5.349,9.159l20.203,5.307L112,304.604z M220.167,260.275L209,257.342v-43.938l11.167,2.933v16.439    h-1.944c-4.143,0-7.5,3.357-7.5,7.5s3.357,7.5,7.5,7.5h1.944V260.275z M278.5,310.5V323h-45v-12.5c0-12.406,10.094-22.5,22.5-22.5    S278.5,298.094,278.5,310.5z M407.5,109.813l79.601,38.03l-79.601,38.03l-79.601-38.03L407.5,109.813z M291.833,247.776h1.944    c4.143,0,7.5-3.357,7.5-7.5s-3.357-7.5-7.5-7.5h-1.944v-16.439L303,213.404v43.938l-11.167,2.933V247.776z M348.254,253.209    c-1.053-4.007-5.151-6.401-9.159-5.349L318,253.402v-43.938l24.905-6.542c4.007-1.053,6.401-5.153,5.349-9.159    c-1.053-4.007-5.151-6.401-9.159-5.349L318,193.954v-34.216l82,39.176v105.69l-77.298-36.929l20.203-5.307    C346.912,261.315,349.307,257.215,348.254,253.209z"/>
		<path d="M256,400.5c4.143,0,7.5-3.357,7.5-7.5v-8.79c8.729-3.096,15-11.433,15-21.21c0-12.406-10.094-22.5-22.5-22.5    s-22.5,10.094-22.5,22.5c0,9.777,6.271,18.114,15,21.21V393C248.5,397.143,251.857,400.5,256,400.5z M256,355.5    c4.136,0,7.5,3.364,7.5,7.5s-3.364,7.5-7.5,7.5s-7.5-3.364-7.5-7.5S251.864,355.5,256,355.5z"/>
	</g>
</g>















</svg>
